<?xml version="1.0" standalone="no"?>
<!DOCTYPE svg PUBLIC "-//W3C//DTD SVG 20010904//EN"
 "http://www.w3.org/TR/2001/REC-SVG-20010904/DTD/svg10.dtd">
<svg version="1.0" xmlns="http://www.w3.org/2000/svg"
 width="512.000000pt" height="512.000000pt" viewBox="0 0 512.000000 512.000000"
 preserveAspectRatio="xMidYMid meet">
<metadata>
Created by potrace 1.14, written by Peter Selinger 2001-2017
</metadata>
<g transform="translate(0.000000,512.000000) scale(0.100000,-0.100000)"
fill="#000000" stroke="none">
<path d="M0 2560 l0 -2560 2560 0 2560 0 0 2560 0 2560 -2560 0 -2560 0 0
-2560z m1673 2165 c225 -39 482 -178 760 -410 l127 -106 82 72 c570 493 1057
596 1279 269 52 -77 84 -160 110 -281 41 -191 29 -520 -29 -801 l-18 -88 80
-26 c469 -155 794 -377 908 -621 40 -84 50 -207 24 -294 -73 -249 -407 -499
-896 -669 -52 -18 -98 -36 -102 -39 -4 -3 2 -48 13 -100 49 -240 64 -563 34
-748 -65 -403 -302 -572 -669 -479 -209 54 -489 219 -733 434 l-79 69 -54 -49
c-158 -142 -389 -303 -535 -373 -318 -153 -563 -148 -723 15 -170 173 -226
513 -161 974 11 76 26 165 34 198 10 45 11 60 2 63 -7 3 -59 21 -117 41 -296
101 -540 237 -698 388 -151 145 -208 262 -200 416 4 77 9 98 40 162 117 235
406 436 853 594 139 49 129 28 97 205 -50 275 -55 570 -12 754 55 243 196 404
380 434 82 13 109 12 203 -4z"/>
<path d="M3482 4509 c-118 -20 -261 -83 -417 -186 -98 -65 -236 -172 -302
-235 l-41 -40 104 -118 c58 -64 150 -175 205 -246 55 -70 101 -129 102 -130 1
-1 72 -12 157 -24 141 -19 430 -73 464 -86 10 -4 18 21 35 108 32 172 41 269
41 424 0 405 -109 572 -348 533z"/>
<path d="M1474 4500 c-75 -23 -139 -132 -171 -290 -19 -94 -21 -348 -4 -480
12 -90 48 -280 54 -286 2 -2 32 4 67 12 140 32 497 93 556 94 6 0 26 21 44 47
81 112 235 298 327 394 l54 56 -65 57 c-110 96 -282 221 -383 277 -149 82
-261 121 -363 125 -47 2 -99 -1 -116 -6z"/>
<path d="M2495 3822 c-68 -75 -205 -237 -205 -243 0 -2 121 -4 269 -4 199 0
267 3 263 11 -12 20 -209 248 -239 276 l-28 26 -60 -66z"/>
<path d="M2198 3341 c-48 -3 -89 -9 -91 -11 -56 -65 -262 -413 -363 -612 l-84
-167 79 -153 c146 -286 344 -601 388 -620 33 -13 745 -18 833 -5 l55 8 67 102
c106 162 203 329 294 510 l85 168 -84 162 c-132 254 -344 599 -377 613 -22 9
-698 14 -802 5z m504 -352 c164 -55 278 -188 309 -360 25 -138 -25 -289 -128
-392 -64 -64 -126 -100 -208 -122 -258 -67 -519 101 -566 365 -38 216 92 436
300 507 89 30 208 31 293 2z"/>
<path d="M1760 3293 c-134 -24 -337 -66 -343 -72 -9 -9 18 -100 80 -269 l45
-122 82 147 c45 82 106 185 134 231 29 46 52 85 52 88 0 4 -11 4 -50 -3z"/>
<path d="M3312 3293 c2 -5 46 -80 99 -168 53 -88 111 -189 128 -224 18 -36 36
-60 41 -55 15 16 130 368 122 375 -9 8 -117 31 -271 59 -132 23 -124 22 -119
13z"/>
<path d="M1070 3121 c-362 -130 -628 -304 -713 -466 -29 -57 -29 -136 2 -198
55 -112 241 -256 473 -366 158 -75 357 -146 363 -128 2 6 23 71 46 142 23 72
71 202 106 290 63 156 64 160 50 195 -73 178 -122 307 -162 428 -26 78 -50
142 -54 141 -3 0 -53 -17 -111 -38z"/>
<path d="M3925 3148 c-2 -7 -25 -76 -50 -153 -26 -77 -74 -206 -107 -287 l-60
-147 66 -163 c36 -90 87 -227 112 -305 l46 -141 117 40 c246 84 495 222 616
342 163 161 164 280 3 440 -140 139 -355 257 -647 357 -99 34 -90 32 -96 17z"/>
<path d="M1505 2178 c-29 -78 -94 -273 -95 -284 0 -1 31 -9 68 -19 85 -20 332
-64 332 -58 0 2 -32 57 -72 121 -39 64 -99 168 -133 230 l-63 113 -37 -103z"/>
<path d="M3514 2169 c-34 -63 -93 -167 -133 -232 -39 -65 -71 -120 -71 -122 0
-8 386 68 397 79 6 5 -87 288 -115 350 l-17 39 -61 -114z"/>
<path d="M1331 1558 c-31 -171 -41 -269 -41 -419 0 -281 63 -469 173 -520 81
-36 225 -19 371 46 142 63 366 216 509 347 l58 53 -109 121 c-59 67 -152 179
-206 248 -59 76 -106 128 -119 131 -12 2 -78 11 -147 20 -103 13 -363 60 -446
81 -20 5 -23 -2 -43 -108z"/>
<path d="M3660 1650 c-97 -24 -354 -68 -448 -76 l-73 -7 -62 -81 c-76 -101
-125 -161 -250 -304 l-99 -113 28 -31 c47 -49 203 -171 304 -238 200 -131 355
-192 490 -194 69 -1 92 3 120 19 161 95 212 472 124 930 -21 110 -23 115 -42
114 -9 -1 -51 -9 -92 -19z"/>
<path d="M2327 1491 c69 -86 226 -261 233 -261 13 0 270 289 270 303 0 2 -121
3 -270 3 l-270 1 37 -46z"/>
</g>
</svg>
